<svg width="50" height="50" viewBox="0 0 50 50" fill="none" xmlns="http://www.w3.org/2000/svg">
<g clip-path="url(#clip0_479_5839)">
<path d="M30.154 23.074H24.5195V29.3737H30.154V23.074Z" fill="#61ADE0"/>
<path d="M37.2434 23.074H31.6089V29.3737H37.2434V23.074Z" fill="#1C96A0"/>
<path d="M23.0705 23.074H17.436V29.3737H23.0705V23.074Z" fill="#E75553"/>
<path d="M30.154 30.3816H24.5195V36.6813H30.154V30.3816Z" fill="#E75553"/>
<path d="M37.2434 30.3816H31.6089V36.6813H37.2434V30.3816Z" fill="#FED45D"/>
<path d="M23.0705 30.3816H17.436V36.6813H23.0705V30.3816Z" fill="#FED45D"/>
<path d="M30.154 37.6887H24.5195V43.9884H30.154V37.6887Z" fill="#61ADE0"/>
<path d="M37.2434 37.6887H31.6089V43.9884H37.2434V37.6887Z" fill="#E75553"/>
<path d="M17.436 37.6887H23.0705V43.9884H21.4422C20.381 43.9884 19.3633 43.5669 18.6129 42.8165C17.8626 42.0661 17.441 41.0484 17.441 39.9872V37.6887H17.436Z" fill="#1C96A0"/>
<path d="M38.6777 32.6252H47.4993V40.2802C47.4993 41.2637 47.1086 42.2069 46.4131 42.9024C45.7177 43.5978 44.7745 43.9885 43.791 43.9885H38.6777V32.6252Z" fill="#61ADE0"/>
<path d="M47.4993 23.074H38.6777V30.6743H47.4993V23.074Z" fill="#E75553"/>
<path d="M26.4462 17.9209H17.436V21.5448H26.4462V17.9209Z" fill="#1C96A0"/>
<path d="M47.4999 17.9209H38.4897V21.5448H47.4999V17.9209Z" fill="#1C96A0"/>
<path d="M36.975 17.9209H27.9648V21.5448H36.975V17.9209Z" fill="#1C96A0"/>
<path d="M21.0848 5.2124H43.851C44.8187 5.2124 45.7468 5.59682 46.4311 6.2811C47.1154 6.96537 47.4998 7.89345 47.4998 8.86116V16.3076H17.436V8.86116C17.436 7.89345 17.8205 6.96537 18.5047 6.2811C19.189 5.59682 20.1171 5.2124 21.0848 5.2124V5.2124Z" fill="#FED45D"/>
<path d="M12.7603 16.8337H2.82178V36.4625H12.7603V16.8337Z" fill="#61ADE0"/>
<path d="M2.82178 38.1255H12.7603L7.79103 44.7876L2.82178 38.1255Z" fill="#FED45D"/>
<path d="M7.20525 6.01099H8.37682C9.53767 6.01362 10.6501 6.4766 11.47 7.29838C12.2899 8.12015 12.7504 9.2336 12.7504 10.3945V12.5887H2.82178V10.3945C2.82178 9.23189 3.28361 8.11693 4.10567 7.29487C4.92773 6.47281 6.04268 6.01099 7.20525 6.01099V6.01099Z" fill="#E75553"/>
<path d="M6.20605 42.6572H9.37731" stroke="black" stroke-width="0.888608" stroke-miterlimit="10"/>
<path d="M12.5709 13.647H3.01465V15.7618H12.5709V13.647Z" stroke="black" stroke-width="0.992858" stroke-miterlimit="10"/>
<path d="M4.91064 16.8337V36.4625" stroke="black" stroke-width="0.888608" stroke-miterlimit="10"/>
<path d="M10.6738 16.8337V36.4625" stroke="black" stroke-width="0.888608" stroke-miterlimit="10"/>
<path d="M7.79004 16.8337V36.4625" stroke="black" stroke-width="0.888608" stroke-miterlimit="10"/>
</g>
<defs>
<clipPath id="clip0_479_5839">
<rect width="45" height="45" fill="white" transform="translate(2.5 2.5)"/>
</clipPath>
</defs>
</svg>
