<svg width="51" height="50" viewBox="0 0 51 50" fill="none" xmlns="http://www.w3.org/2000/svg">
<g clip-path="url(#clip0_479_5863)">
<g clip-path="url(#clip1_479_5863)">
<path d="M21.2253 43.7489C31.4305 43.7489 39.7035 35.4759 39.7035 25.2707C39.7035 15.0655 31.4305 6.79248 21.2253 6.79248C11.02 6.79248 2.74707 15.0655 2.74707 25.2707C2.74707 35.4759 11.02 43.7489 21.2253 43.7489Z" fill="#FFE4B6"/>
<path d="M21.2253 6.79248C17.5706 6.79248 13.9981 7.87621 10.9593 9.90662C7.92062 11.937 5.55222 14.8229 4.15365 18.1994C2.75508 21.5758 2.38915 25.2912 3.10213 28.8756C3.81512 32.46 5.575 35.7525 8.15922 38.3368C10.7434 40.921 14.0359 42.6809 17.6204 43.3938C21.2048 44.1068 24.9201 43.7409 28.2966 42.3423C31.673 40.9438 34.5589 38.5754 36.5894 35.5366C38.6198 32.4979 39.7035 28.9253 39.7035 25.2707C39.7035 20.37 37.7567 15.67 34.2914 12.2046C30.826 8.73929 26.126 6.79248 21.2253 6.79248V6.79248ZM21.2253 38.3366C18.6411 38.3366 16.1149 37.5703 13.9663 36.1346C11.8176 34.6989 10.1429 32.6583 9.15395 30.2708C8.16502 27.8833 7.90627 25.2562 8.41042 22.7217C8.91458 20.1871 10.159 17.859 11.9863 16.0317C13.8136 14.2044 16.1417 12.96 18.6763 12.4558C21.2108 11.9517 23.8379 12.2104 26.2254 13.1994C28.6129 14.1883 30.6535 15.863 32.0892 18.0117C33.5249 20.1603 34.2912 22.6865 34.2912 25.2707C34.2912 28.736 32.9146 32.0594 30.4643 34.5097C28.014 36.96 24.6906 38.3366 21.2253 38.3366V38.3366Z" fill="#FED45D"/>
<path d="M21.2261 38.336C28.4422 38.336 34.292 32.4861 34.292 25.27C34.292 18.0539 28.4422 12.2041 21.2261 12.2041C14.01 12.2041 8.16016 18.0539 8.16016 25.27C8.16016 32.4861 14.01 38.336 21.2261 38.336Z" stroke="black" stroke-width="1.3634" stroke-miterlimit="10"/>
<path d="M30.7497 8.27319C27.3878 8.27319 24.1015 9.27009 21.3062 11.1378C18.511 13.0056 16.3323 15.6602 15.0458 18.7662C13.7593 21.8721 13.4227 25.2897 14.0786 28.587C14.7344 31.8842 16.3533 34.9129 18.7305 37.2901C21.1076 39.6672 24.1363 41.2861 27.4336 41.942C30.7308 42.5978 34.1485 42.2612 37.2544 40.9747C40.3603 39.6882 43.015 37.5096 44.8827 34.7143C46.7505 31.919 47.7473 28.6327 47.7473 25.2709C47.7473 20.7628 45.9565 16.4394 42.7688 13.2517C39.5812 10.064 35.2577 8.27319 30.7497 8.27319V8.27319ZM30.7497 37.2899C28.3725 37.2899 26.0488 36.585 24.0722 35.2644C22.0957 33.9437 20.5552 32.0666 19.6455 29.8704C18.7358 27.6742 18.4978 25.2576 18.9615 22.9261C19.4253 20.5946 20.57 18.453 22.2509 16.7721C23.9318 15.0912 26.0734 13.9465 28.4049 13.4828C30.7363 13.019 33.153 13.257 35.3491 14.1667C37.5453 15.0764 39.4225 16.6169 40.7431 18.5935C42.0638 20.57 42.7687 22.8937 42.7687 25.2709C42.7687 28.4585 41.5024 31.5156 39.2484 33.7696C36.9944 36.0237 33.9373 37.2899 30.7497 37.2899Z" fill="#FED45D"/>
<path d="M30.749 37.2901C37.387 37.2901 42.7681 31.9089 42.7681 25.271C42.7681 18.6331 37.387 13.252 30.749 13.252C24.1111 13.252 18.73 18.6331 18.73 25.271C18.73 31.9089 24.1111 37.2901 30.749 37.2901Z" fill="white"/>
<path d="M30.749 37.2901C37.387 37.2901 42.7681 31.9089 42.7681 25.271C42.7681 18.6331 37.387 13.252 30.749 13.252C24.1111 13.252 18.73 18.6331 18.73 25.271C18.73 31.9089 24.1111 37.2901 30.749 37.2901Z" stroke="black" stroke-width="1.25416" stroke-miterlimit="10"/>
</g>
</g>
<defs>
<clipPath id="clip0_479_5863">
<rect width="45" height="45" fill="white" transform="translate(2.74707 2.5)"/>
</clipPath>
<clipPath id="clip1_479_5863">
<rect width="45" height="45" fill="white" transform="translate(2.74707 2.5)"/>
</clipPath>
</defs>
</svg>
