<svg width="51" height="50" viewBox="0 0 51 50" fill="none" xmlns="http://www.w3.org/2000/svg">
<g clip-path="url(#clip0_479_5870)">
<path d="M48.0015 11.4048H3.00146V17.0448H48.0015V11.4048Z" fill="#E75553"/>
<path d="M46.502 12.7644H4.50195V15.6794H46.502V12.7644Z" fill="#1C96A0"/>
<path d="M46.502 14.3193H4.50195V23.1043H46.502V14.3193Z" fill="#7CC8C2"/>
<path d="M6.50195 12.8176V21.1045H44.502V12.7898" stroke="black" stroke-width="1.32" stroke-miterlimit="10"/>
<path d="M25.5015 25.3752V36.5452" stroke="black" stroke-width="1.32" stroke-miterlimit="10"/>
<path d="M29.267 35.0051L25.767 38.4751C25.7289 38.5132 25.6837 38.5434 25.6339 38.564C25.5842 38.5846 25.5309 38.5952 25.477 38.5952C25.4231 38.5952 25.3698 38.5846 25.32 38.564C25.2703 38.5434 25.2251 38.5132 25.187 38.4751L21.687 35.0051C21.63 34.9467 21.5915 34.873 21.5762 34.7929C21.5609 34.7128 21.5695 34.63 21.601 34.5549C21.6325 34.4797 21.6854 34.4154 21.7531 34.3701C21.8209 34.3248 21.9005 34.3004 21.982 34.3H28.972C29.0535 34.3004 29.1331 34.3248 29.2008 34.3701C29.2686 34.4154 29.3215 34.4797 29.353 34.5549C29.3844 34.63 29.3931 34.7128 29.3778 34.7929C29.3625 34.873 29.324 34.9467 29.267 35.0051V35.0051Z" fill="#1C96A0"/>
</g>
<defs>
<clipPath id="clip0_479_5870">
<rect width="45" height="45" fill="white" transform="translate(3.00146 2.5)"/>
</clipPath>
</defs>
</svg>
