<svg width="419" height="89" viewBox="0 0 419 89" fill="none" xmlns="http://www.w3.org/2000/svg">
<path fill-rule="evenodd" clip-rule="evenodd" d="M402.077 61.4481C405.087 62.2994 407.986 62.2436 411.039 62.3457C411.635 62.3655 412.131 61.8268 412.149 61.1432C412.167 60.4592 411.697 59.8883 411.1 59.8681C408.205 59.7714 405.45 59.8495 402.591 59.0415C402.013 58.878 401.427 59.2849 401.287 59.9491C401.144 60.6129 401.499 61.2849 402.077 61.4481Z" fill="#FED45D"/>
<path fill-rule="evenodd" clip-rule="evenodd" d="M396.244 68.6812C400.834 74.4564 406.739 79.898 412.702 83.7013C413.222 84.033 413.88 83.817 414.167 83.2189C414.454 82.6208 414.268 81.8657 413.747 81.5341C407.982 77.8563 402.271 72.5936 397.835 67.0092C397.433 66.5044 396.75 66.4693 396.312 66.9307C395.874 67.392 395.841 68.1764 396.244 68.6812Z" fill="#FED45D"/>
<path fill-rule="evenodd" clip-rule="evenodd" d="M391.23 70.1436C390.472 75.4257 391.765 80.8702 393.593 85.6732C393.834 86.2998 394.47 86.5857 395.012 86.3118C395.558 86.0375 395.806 85.306 395.569 84.6794C393.902 80.3052 392.667 75.358 393.356 70.5471C393.453 69.8722 393.055 69.234 392.469 69.1229C391.884 69.0114 391.327 69.4691 391.23 70.1436Z" fill="#FED45D"/>
<path fill-rule="evenodd" clip-rule="evenodd" d="M27.7024 48.1493C23.1731 46.9017 18.4311 46.2724 13.831 45.6959C12.8403 45.575 11.9204 46.2495 11.8496 47.1997C11.7081 48.1507 12.4162 49.0203 13.3362 49.1412C17.7947 49.6962 22.3944 50.2901 26.7113 51.4911C27.6314 51.7516 28.6226 51.2153 28.9056 50.2929C29.1887 49.3711 28.6224 48.4105 27.7024 48.1493Z" fill="#FED45D"/>
<path fill-rule="evenodd" clip-rule="evenodd" d="M26.0731 30.4623C18.7837 23.1612 10.5744 16.7999 3.42662 9.30292C2.78969 8.60275 1.65736 8.56524 0.949662 9.21887C0.24196 9.8732 0.171466 10.9735 0.879168 11.6736C8.02696 19.1922 16.2363 25.5743 23.5256 32.897C24.2333 33.5805 25.3654 33.5902 26.0731 32.9178C26.71 32.2461 26.7808 31.1458 26.0731 30.4623Z" fill="#FED45D"/>
<path fill-rule="evenodd" clip-rule="evenodd" d="M39.7325 2.37943C39.9448 6.55824 40.1567 10.737 40.369 14.9166C40.369 15.8737 41.2187 16.6128 42.2095 16.5663C43.2002 16.519 43.9075 15.7043 43.9075 14.7464C43.6952 10.5606 43.4833 6.37555 43.271 2.19049C43.2002 1.23331 42.3509 0.499097 41.3601 0.551194C40.4401 0.60329 39.6617 1.42294 39.7325 2.37943Z" fill="#FED45D"/>
</svg>
